{
  "accessors": [
    {
      "bufferView": 1,
      "componentType": 5126,
      "count": 949,
      "max": [
        2.3664712905883789,
        11.515010833740234,
        8.1527280807495117
      ],
      "min": [
        -2.3727507591247559,
        0.011991139501333237,
        -14.070770263671875
      ],
      "type": "VEC3"
    },
    {
      "bufferView": 1,
      "byteOffset": 11388,
      "componentType": 5126,
      "count": 949,
      "max": [
        0.99993759393692017,
        0.97583460807800293,
        0.99821722507476807
      ],
      "min": [
        -0.99993759393692017,
        -1,
        -0.9997745156288147
      ],
      "type": "VEC3"
    },
    {
      "bufferView": 2,
      "componentType": 5126,
      "count": 949,
      "max": [
        0.9999544620513916,
        0.99468517303466797,
        0.99995797872543335,
        1
      ],
      "min": [
        -0.9999544620513916,
        -0.55772024393081665,
        -0.99991393089294434,
        -1
      ],
      "type": "VEC4"
    },
    {
      "bufferView": 0,
      "componentType": 5125,
      "count": 2196,
      "max": [
        948
      ],
      "min": [
        0
      ],
      "type": "SCALAR"
    }
  ],
  "asset": {
    "extras": {
      "author": "volkanongun (https://sketchfab.com/volkanongun)",
      "license": "CC-BY-4.0 (http://creativecommons.org/licenses/by/4.0/)",
      "source": "https://sketchfab.com/models/1e7143dfafd04ff4891efcb06949a0b4",
      "title": "Low Poly Cat"
    },
    "generator": "Sketchfab-3.18.5",
    "version": "2.0"
  },
  "bufferViews": [
    {
      "buffer": 0,
      "byteLength": 8784,
      "byteOffset": 0,
      "name": "floatBufferViews",
      "target": 34963
    },
    {
      "buffer": 0,
      "byteLength": 22776,
      "byteOffset": 8784,
      "byteStride": 12,
      "name": "floatBufferViews",
      "target": 34962
    },
    {
      "buffer": 0,
      "byteLength": 15184,
      "byteOffset": 31560,
      "byteStride": 16,
      "name": "floatBufferViews",
      "target": 34962
    }
  ],
  "buffers": [
    {
      "byteLength": 46744,
      "uri": "scene.bin"
    }
  ],
  "materials": [
    {
      "doubleSided": true,
      "emissiveFactor": [
        0,
        0,
        0
      ],
      "name": "lambert1",
      "pbrMetallicRoughness": {
        "baseColorFactor": [
          0.021200637120000001,
          0.021761496480000003,
          0.027374737119999999,
          1
        ],
        "metallicFactor": 0,
        "roughnessFactor": 0.59999999999999998
      }
    }
  ],
  "meshes": [
    {
      "name": "CatMesh2_lambert1_0",
      "primitives": [
        {
          "attributes": {
            "NORMAL": 1,
            "POSITION": 0,
            "TANGENT": 2
          },
          "indices": 3,
          "material": 0,
          "mode": 4
        }
      ]
    }
  ],
  "nodes": [
    {
      "children": [
        1
      ],
      "name": "RootNode (gltf orientation matrix)",
      "rotation": [
        -0.70710678118654746,
        -0,
        -0,
        0.70710678118654757
      ]
    },
    {
      "children": [
        2
      ],
      "name": "RootNode (model correction matrix)"
    },
    {
      "children": [
        3
      ],
      "matrix": [
        1,
        0,
        0,
        0,
        0,
        0,
        1,
        0,
        0,
        -1,
        0,
        0,
        0,
        0,
        0,
        1
      ],
      "name": "8774a35949e444c295c93d3a1a828577.fbx"
    },
    {
      "children": [
        4
      ],
      "name": "RootNode"
    },
    {
      "children": [
        5
      ],
      "name": "CatMesh2"
    },
    {
      "mesh": 0,
      "name": "CatMesh2_lambert1_0"
    }
  ],
  "scene": 0,
  "scenes": [
    {
      "name": "OSG_Scene",
      "nodes": [
        0
      ]
    }
  ]
}

